<svg id="svg" xmlns="http://www.w3.org/2000/svg" xmlns:xlink="http://www.w3.org/1999/xlink" width="400" height="238.0952380952381" viewBox="0, 0, 400,238.0952380952381" version="1.1"><g id="svgg"><path id="path0" d="M2.613 1.190 L 2.500 2.500 1.190 2.640 L -0.119 2.780 1.389 2.818 C 2.436 2.845,2.868 2.944,2.802 3.141 C 2.741 3.326,2.239 3.403,1.354 3.362 L 0.000 3.299 0.000 24.149 L 0.000 45.000 1.310 45.000 C 2.539 45.000,2.619 45.035,2.619 45.581 C 2.619 45.901,2.728 46.230,2.861 46.312 C 2.994 46.394,3.034 46.573,2.950 46.709 C 2.852 46.868,2.725 46.841,2.593 46.633 C 2.430 46.376,2.387 46.389,2.385 46.697 C 2.380 47.149,2.781 47.520,3.452 47.685 C 3.808 47.772,3.760 47.809,3.260 47.830 C 2.851 47.846,2.652 47.956,2.748 48.111 C 2.835 48.251,3.045 48.312,3.216 48.247 C 3.387 48.181,3.724 48.353,3.966 48.628 C 4.207 48.904,4.278 49.056,4.124 48.966 C 3.969 48.875,3.775 48.911,3.693 49.044 C 3.559 49.261,3.868 49.389,4.345 49.314 C 4.443 49.298,4.525 49.473,4.527 49.702 C 4.530 49.938,4.607 50.015,4.706 49.881 C 4.934 49.570,6.265 49.537,6.464 49.837 C 6.668 50.143,7.455 49.836,7.263 49.525 C 7.181 49.394,7.228 49.286,7.367 49.286 C 7.506 49.286,7.619 49.446,7.619 49.643 C 7.619 49.897,7.876 49.999,8.512 49.997 C 9.846 49.992,10.505 49.757,10.430 49.315 C 10.394 49.102,10.470 48.902,10.599 48.869 C 10.728 48.836,10.833 49.051,10.833 49.345 L 10.833 49.881 198.571 49.946 C 377.622 50.007,387.890 49.985,387.170 49.541 C 386.933 49.394,386.950 49.319,387.242 49.207 C 387.449 49.128,387.619 49.166,387.619 49.293 C 387.619 49.420,387.807 49.531,388.036 49.541 C 388.393 49.555,388.385 49.587,387.976 49.768 C 387.603 49.933,387.694 49.970,388.393 49.941 C 389.021 49.914,389.287 49.794,389.289 49.535 C 389.291 49.320,389.366 49.266,389.468 49.405 C 389.736 49.770,390.210 49.861,392.083 49.909 C 393.760 49.952,393.929 49.880,393.834 49.167 C 393.817 49.036,393.950 49.116,394.130 49.345 C 394.575 49.912,394.972 49.869,395.231 49.226 C 395.432 48.725,395.447 48.737,395.468 49.405 C 395.487 50.010,395.528 50.055,395.734 49.700 C 395.868 49.470,395.903 49.149,395.811 48.986 C 395.683 48.758,395.714 48.755,395.947 48.970 C 396.397 49.386,396.967 48.828,396.583 48.347 C 396.372 48.083,396.377 48.045,396.605 48.181 C 396.768 48.279,397.089 48.249,397.320 48.115 C 397.674 47.909,397.629 47.868,397.024 47.849 C 396.356 47.828,396.344 47.813,396.845 47.612 C 397.488 47.353,397.531 46.956,396.964 46.511 C 396.735 46.331,396.655 46.198,396.786 46.215 C 397.433 46.301,397.644 46.152,397.574 45.655 C 397.506 45.165,397.607 45.113,398.750 45.047 L 400.000 44.975 400.000 24.154 L 400.000 3.333 398.810 3.333 C 397.221 3.333,397.275 2.868,398.869 2.818 L 400.119 2.780 398.810 2.640 L 397.500 2.500 397.360 1.190 L 397.220 -0.119 397.182 1.336 C 397.145 2.703,397.111 2.786,396.607 2.703 C 396.313 2.655,395.589 2.589,395.000 2.556 L 393.929 2.496 393.857 1.248 C 393.817 0.562,393.673 -0.000,393.537 -0.000 C 393.386 -0.000,393.321 0.509,393.371 1.310 C 393.416 2.030,393.372 2.620,393.274 2.619 C 393.176 2.619,393.095 2.030,393.095 1.310 L 393.095 0.000 200.000 0.000 L 6.905 0.000 6.905 1.176 C 6.905 1.823,6.824 2.403,6.726 2.464 C 6.628 2.525,6.584 1.995,6.629 1.287 C 6.681 0.465,6.617 -0.000,6.451 -0.000 C 6.297 -0.000,6.174 0.562,6.150 1.369 L 6.110 2.738 5.952 1.310 L 5.794 -0.119 5.754 1.264 C 5.704 2.986,5.254 2.866,5.199 1.117 L 5.160 -0.119 5.021 1.169 C 4.908 2.204,4.790 2.470,4.419 2.524 C 4.165 2.560,3.714 2.651,3.418 2.725 C 2.908 2.854,2.876 2.784,2.803 1.371 L 2.725 -0.119 2.613 1.190 M3.881 1.190 C 3.881 1.911,3.926 2.205,3.980 1.845 C 4.035 1.485,4.035 0.896,3.980 0.536 C 3.926 0.176,3.881 0.470,3.881 1.190 M394.048 1.190 C 394.048 1.845,394.155 2.381,394.286 2.381 C 394.417 2.381,394.524 1.845,394.524 1.190 C 394.524 0.536,394.417 0.000,394.286 0.000 C 394.155 0.000,394.048 0.536,394.048 1.190 M394.833 1.190 C 394.833 1.911,394.878 2.205,394.932 1.845 C 394.987 1.485,394.987 0.896,394.932 0.536 C 394.878 0.176,394.833 0.470,394.833 1.190 M395.238 1.190 C 395.238 1.845,395.345 2.381,395.476 2.381 C 395.607 2.381,395.714 1.845,395.714 1.190 C 395.714 0.536,395.607 0.000,395.476 0.000 C 395.345 0.000,395.238 0.536,395.238 1.190 M18.631 49.692 C 18.336 49.749,17.854 49.749,17.560 49.692 C 17.265 49.635,17.506 49.589,18.095 49.589 C 18.685 49.589,18.926 49.635,18.631 49.692 M382.562 49.687 C 382.335 49.747,381.906 49.749,381.610 49.692 C 381.314 49.635,381.500 49.586,382.024 49.584 C 382.548 49.581,382.790 49.628,382.562 49.687 M5.115 93.101 C 5.033 93.235,4.995 93.841,5.033 94.447 L 5.100 95.549 3.804 95.572 C 2.702 95.592,2.497 95.666,2.432 96.071 C 2.373 96.437,2.408 96.471,2.582 96.215 C 2.707 96.033,2.974 95.946,3.175 96.023 C 3.376 96.101,3.584 96.089,3.636 95.999 C 3.689 95.908,3.699 95.967,3.659 96.131 C 3.566 96.512,3.976 96.523,4.103 96.143 C 4.171 95.940,4.246 95.933,4.361 96.119 C 4.457 96.275,4.237 96.482,3.823 96.626 C 3.249 96.826,3.147 96.809,3.254 96.530 C 3.326 96.343,3.281 96.190,3.155 96.190 C 3.029 96.190,2.827 96.539,2.705 96.964 C 2.499 97.690,2.403 97.747,1.183 97.878 L -0.119 98.018 1.369 98.056 C 2.228 98.079,2.857 97.995,2.857 97.857 C 2.857 97.726,3.205 97.628,3.631 97.640 L 4.405 97.660 3.711 97.868 C 3.329 97.982,2.935 98.207,2.836 98.367 C 2.720 98.555,2.180 98.638,1.328 98.598 L 0.000 98.537 0.000 119.387 L 0.000 140.238 1.310 140.238 C 2.539 140.238,2.619 140.274,2.619 140.819 C 2.619 141.139,2.728 141.468,2.861 141.550 C 2.994 141.632,3.034 141.811,2.950 141.947 C 2.852 142.106,2.725 142.079,2.593 141.871 C 2.430 141.614,2.387 141.627,2.385 141.935 C 2.380 142.387,2.781 142.758,3.452 142.923 C 3.808 143.010,3.760 143.047,3.260 143.068 C 2.851 143.085,2.652 143.194,2.748 143.350 C 2.835 143.489,3.045 143.550,3.216 143.485 C 3.387 143.419,3.724 143.591,3.966 143.867 C 4.207 144.142,4.278 144.294,4.124 144.204 C 3.969 144.114,3.775 144.149,3.693 144.282 C 3.559 144.499,3.868 144.627,4.345 144.552 C 4.443 144.536,4.525 144.711,4.527 144.940 C 4.530 145.176,4.607 145.254,4.706 145.119 C 4.934 144.809,6.265 144.775,6.464 145.075 C 6.668 145.381,7.455 145.074,7.263 144.764 C 7.181 144.632,7.228 144.524,7.367 144.524 C 7.506 144.524,7.619 144.685,7.619 144.881 C 7.619 145.135,7.876 145.237,8.512 145.235 C 9.846 145.230,10.505 144.996,10.430 144.553 C 10.394 144.341,10.470 144.140,10.599 144.107 C 10.728 144.074,10.833 144.289,10.833 144.583 L 10.833 145.119 100.060 145.175 C 184.568 145.227,189.286 145.208,189.289 144.817 C 189.292 144.473,189.329 144.462,189.513 144.752 C 189.672 145.004,190.292 145.115,191.771 145.157 C 193.780 145.214,193.934 145.158,193.834 144.405 C 193.817 144.274,193.950 144.354,194.130 144.583 C 194.575 145.150,194.972 145.107,195.231 144.464 C 195.432 143.964,195.447 143.975,195.468 144.643 C 195.487 145.248,195.528 145.293,195.734 144.939 C 195.868 144.708,195.903 144.387,195.811 144.224 C 195.683 143.996,195.714 143.993,195.947 144.208 C 196.397 144.624,196.967 144.066,196.583 143.585 C 196.372 143.321,196.377 143.283,196.605 143.420 C 196.768 143.517,197.089 143.488,197.320 143.353 C 197.674 143.147,197.629 143.106,197.024 143.087 C 196.356 143.067,196.344 143.051,196.845 142.850 C 197.488 142.591,197.531 142.194,196.964 141.749 C 196.735 141.569,196.655 141.436,196.786 141.453 C 197.433 141.539,197.644 141.390,197.574 140.893 C 197.511 140.435,197.595 140.368,198.155 140.434 C 198.515 140.476,198.810 140.410,198.810 140.288 C 198.810 140.166,199.077 140.117,199.405 140.180 C 199.899 140.274,200.005 140.198,200.028 139.730 C 200.053 139.242,200.081 139.262,200.238 139.881 C 200.400 140.517,200.621 140.150,200.498 139.447 C 200.480 139.339,200.576 139.319,200.712 139.404 C 200.849 139.488,200.892 139.667,200.808 139.802 C 200.709 139.963,200.822 139.959,201.134 139.792 C 201.396 139.652,201.676 139.368,201.755 139.161 C 201.834 138.954,201.801 138.846,201.680 138.920 C 201.560 138.995,201.393 138.944,201.308 138.808 C 201.224 138.671,201.243 138.575,201.351 138.594 C 202.054 138.716,202.422 138.495,201.786 138.333 C 201.167 138.176,201.147 138.148,201.635 138.123 C 202.103 138.100,202.179 137.994,202.085 137.500 C 202.022 137.173,202.065 136.905,202.180 136.905 C 202.295 136.905,202.364 136.581,202.334 136.185 C 202.294 135.659,202.184 135.501,201.927 135.600 C 201.674 135.696,201.698 135.598,202.011 135.253 C 202.505 134.706,202.389 132.684,201.843 132.338 C 201.631 132.203,201.659 132.149,201.944 132.147 C 202.309 132.143,202.337 131.119,202.301 119.107 L 202.262 106.071 201.726 106.071 C 201.432 106.071,201.217 105.966,201.250 105.837 C 201.283 105.708,201.483 105.632,201.696 105.668 C 202.138 105.743,202.373 105.084,202.378 103.750 C 202.380 103.114,202.278 102.857,202.024 102.857 C 201.827 102.857,201.667 102.744,201.667 102.605 C 201.667 102.466,201.775 102.420,201.906 102.501 C 202.217 102.693,202.524 101.906,202.218 101.702 C 201.918 101.503,201.951 100.172,202.262 99.944 C 202.396 99.845,202.319 99.768,202.083 99.766 C 201.854 99.764,201.679 99.682,201.695 99.583 C 201.770 99.106,201.642 98.797,201.425 98.931 C 201.292 99.013,201.256 99.207,201.347 99.362 C 201.437 99.516,201.285 99.445,201.009 99.204 C 200.734 98.962,200.562 98.625,200.628 98.454 C 200.693 98.283,200.632 98.073,200.492 97.986 C 200.337 97.890,200.227 98.089,200.210 98.498 C 200.190 98.998,200.153 99.047,200.066 98.690 C 199.901 98.019,199.530 97.618,199.078 97.623 C 198.770 97.626,198.757 97.668,199.014 97.831 C 199.222 97.963,199.249 98.090,199.089 98.188 C 198.954 98.272,198.775 98.232,198.693 98.099 C 198.611 97.966,198.335 97.857,198.081 97.857 C 197.778 97.857,197.619 97.694,197.619 97.381 C 197.619 97.119,197.500 96.905,197.355 96.905 C 197.211 96.905,197.157 96.735,197.237 96.528 C 197.329 96.286,197.274 96.190,197.083 96.260 C 196.920 96.320,196.809 96.480,196.838 96.615 C 196.867 96.750,196.759 96.841,196.600 96.816 C 196.122 96.744,195.714 96.419,195.722 96.117 C 195.726 95.961,195.839 96.023,195.974 96.255 C 196.237 96.706,196.692 96.606,196.576 96.123 C 196.538 95.964,196.550 95.908,196.602 95.999 C 196.725 96.212,197.381 95.963,197.381 95.703 C 197.381 95.594,196.979 95.463,196.488 95.412 C 195.612 95.320,195.616 95.317,196.667 95.267 L 197.738 95.217 197.024 94.903 C 196.631 94.731,196.213 94.645,196.094 94.713 C 195.976 94.780,195.951 94.719,196.039 94.577 C 196.126 94.435,196.082 94.247,195.940 94.159 C 195.798 94.071,195.738 93.853,195.807 93.674 C 195.875 93.495,195.829 93.285,195.704 93.208 C 195.478 93.068,195.413 93.383,195.435 94.524 C 195.441 94.869,195.397 94.954,195.329 94.727 C 195.197 94.281,194.355 93.981,194.153 94.308 C 194.080 94.427,194.139 94.524,194.286 94.524 C 194.432 94.524,194.481 94.638,194.395 94.778 C 194.214 95.070,194.033 94.948,193.964 94.486 C 193.937 94.310,193.821 94.016,193.707 93.832 C 193.550 93.582,193.582 93.550,193.832 93.706 C 194.554 94.156,195.037 94.074,194.957 93.515 C 194.912 93.199,194.687 92.951,194.405 92.906 C 194.049 92.850,194.010 92.887,194.252 93.053 C 194.460 93.196,194.487 93.328,194.328 93.427 C 194.192 93.510,194.010 93.466,193.925 93.327 C 193.724 93.003,191.668 93.103,191.663 93.437 C 191.661 93.607,191.602 93.610,191.484 93.447 C 191.209 93.065,189.725 93.008,189.495 93.372 C 189.332 93.629,189.292 93.630,189.289 93.379 C 189.287 93.207,189.186 93.129,189.064 93.204 C 188.942 93.279,188.775 93.232,188.693 93.099 C 188.469 92.736,187.702 92.808,187.279 93.231 C 186.940 93.570,186.905 93.570,186.905 93.233 C 186.905 92.895,178.718 92.860,100.008 92.860 C 17.460 92.860,13.118 92.881,13.245 93.275 C 13.336 93.560,13.311 93.598,13.165 93.396 C 12.883 93.006,11.288 92.675,11.523 93.055 C 11.634 93.235,11.558 93.277,11.298 93.177 C 11.075 93.091,10.813 93.170,10.694 93.358 C 10.543 93.596,10.482 93.606,10.480 93.393 C 10.475 93.007,9.233 93.005,8.847 93.391 C 8.612 93.626,8.510 93.619,8.347 93.356 C 8.080 92.924,7.286 93.220,7.465 93.685 C 7.538 93.876,7.480 94.105,7.336 94.194 C 7.161 94.303,7.114 94.148,7.194 93.726 C 7.266 93.349,7.208 93.097,7.050 93.098 C 6.468 93.106,5.714 93.402,5.714 93.625 C 5.714 93.754,5.867 93.802,6.054 93.730 C 6.333 93.623,6.350 93.725,6.150 94.300 C 6.006 94.714,5.799 94.933,5.643 94.837 C 5.457 94.722,5.464 94.647,5.666 94.579 C 6.047 94.453,6.036 94.042,5.655 94.135 C 5.491 94.175,5.431 94.165,5.522 94.112 C 5.613 94.060,5.624 93.852,5.547 93.651 C 5.470 93.450,5.556 93.191,5.739 93.075 C 6.008 92.905,5.994 92.864,5.669 92.861 C 5.447 92.859,5.198 92.967,5.115 93.101 M4.524 93.347 C 4.524 93.486,4.406 93.527,4.262 93.438 C 4.089 93.331,4.097 93.456,4.286 93.810 C 4.443 94.103,4.466 94.278,4.336 94.198 C 4.039 94.014,3.515 94.622,3.752 94.876 C 3.849 94.979,3.675 94.932,3.364 94.770 C 3.054 94.609,2.867 94.585,2.949 94.718 C 3.031 94.851,2.964 95.014,2.799 95.080 C 2.635 95.146,3.009 95.209,3.631 95.219 L 4.762 95.238 4.762 94.167 C 4.762 93.577,4.708 93.095,4.643 93.095 C 4.577 93.095,4.524 93.209,4.524 93.347 M141.369 93.274 C 118.616 93.307,81.384 93.307,58.631 93.274 C 35.878 93.240,54.494 93.213,100.000 93.213 C 145.506 93.213,164.122 93.240,141.369 93.274 M193.353 94.048 C 193.475 94.048,193.441 94.265,193.276 94.531 C 193.028 94.931,193.038 95.054,193.333 95.242 C 193.530 95.367,193.583 95.469,193.452 95.469 C 192.810 95.469,192.521 95.048,192.872 94.622 C 193.124 94.318,193.139 94.183,192.930 94.113 C 192.769 94.058,192.714 93.843,192.804 93.616 C 192.950 93.245,192.969 93.246,193.046 93.631 C 193.092 93.860,193.230 94.048,193.353 94.048 M196.128 93.723 C 195.967 93.979,196.171 94.234,196.843 94.618 C 197.041 94.731,197.091 94.666,196.996 94.418 C 196.918 94.216,196.767 94.105,196.660 94.171 C 196.552 94.237,196.427 94.103,196.381 93.872 C 196.327 93.598,196.239 93.546,196.128 93.723 M6.390 95.753 C 6.140 96.003,6.009 96.328,6.100 96.474 C 6.198 96.633,6.157 96.674,5.998 96.576 C 5.851 96.485,5.527 96.616,5.277 96.866 C 4.828 97.314,4.822 97.312,4.826 96.696 C 4.829 96.353,4.880 96.213,4.941 96.386 C 5.022 96.618,5.204 96.558,5.623 96.164 C 6.000 95.810,6.105 95.570,5.930 95.462 C 5.783 95.372,5.929 95.298,6.254 95.298 C 6.836 95.298,6.838 95.305,6.390 95.753 M194.524 96.190 C 194.786 96.452,195.000 96.725,195.000 96.797 C 195.000 96.995,193.826 96.098,193.817 95.893 C 193.805 95.597,194.022 95.689,194.524 96.190 M197.143 97.823 C 197.143 97.907,196.593 97.938,195.920 97.891 C 195.247 97.845,194.813 97.734,194.956 97.646 C 195.269 97.453,197.143 97.604,197.143 97.823 M202.124 112.931 C 202.103 114.341,201.994 114.203,201.835 112.564 C 201.775 111.944,201.820 111.495,201.934 111.566 C 202.049 111.637,202.134 112.251,202.124 112.931 M201.980 126.449 C 201.873 126.556,201.837 126.086,201.900 125.405 L 202.015 124.167 202.094 125.211 C 202.138 125.785,202.086 126.343,201.980 126.449 M202.115 130.803 C 202.089 131.284,202.082 131.286,201.971 130.833 C 201.906 130.571,201.731 130.196,201.582 130.000 C 201.345 129.689,201.364 129.685,201.726 129.970 C 201.955 130.149,202.130 130.524,202.115 130.803 M188.313 144.914 C 188.552 145.120,187.464 144.969,187.143 144.751 C 186.882 144.575,186.978 144.552,187.500 144.669 C 187.893 144.757,188.259 144.867,188.313 144.914 M18.631 144.930 C 18.336 144.987,17.854 144.987,17.560 144.930 C 17.265 144.873,17.506 144.827,18.095 144.827 C 18.685 144.827,18.926 144.873,18.631 144.930 M182.562 144.925 C 182.335 144.985,181.906 144.987,181.610 144.930 C 181.314 144.873,181.500 144.825,182.024 144.822 C 182.548 144.819,182.790 144.866,182.562 144.925 M5.115 188.339 C 5.033 188.473,4.995 189.079,5.033 189.685 L 5.100 190.788 3.804 190.810 C 2.702 190.830,2.497 190.904,2.432 191.310 C 2.373 191.675,2.408 191.709,2.582 191.453 C 2.707 191.271,2.974 191.184,3.175 191.261 C 3.376 191.339,3.584 191.327,3.636 191.237 C 3.689 191.146,3.699 191.205,3.659 191.369 C 3.566 191.750,3.976 191.761,4.103 191.381 C 4.171 191.178,4.246 191.171,4.361 191.358 C 4.457 191.513,4.237 191.720,3.823 191.864 C 3.249 192.065,3.147 192.047,3.254 191.768 C 3.326 191.581,3.281 191.429,3.155 191.429 C 3.029 191.429,2.827 191.777,2.705 192.202 C 2.499 192.928,2.403 192.985,1.183 193.116 L -0.119 193.256 1.369 193.295 C 2.228 193.317,2.857 193.233,2.857 193.095 C 2.857 192.964,3.205 192.866,3.631 192.878 L 4.405 192.898 3.711 193.106 C 3.329 193.220,2.935 193.445,2.836 193.606 C 2.720 193.793,2.180 193.876,1.328 193.836 L 0.000 193.775 0.000 214.626 L 0.000 235.476 1.310 235.476 L 2.619 235.476 2.663 236.845 L 2.707 238.214 2.795 236.964 C 2.906 235.373,3.333 235.325,3.333 236.905 L 3.333 238.095 150.345 238.095 L 297.356 238.095 297.428 236.845 C 297.498 235.636,297.521 235.598,298.155 235.672 C 298.515 235.714,298.810 235.648,298.810 235.526 C 298.810 235.404,299.069 235.354,299.385 235.414 C 299.843 235.502,299.982 235.410,300.067 234.964 C 300.164 234.455,300.176 234.463,300.206 235.060 C 300.224 235.420,300.345 235.714,300.476 235.714 C 300.693 235.714,300.810 235.382,300.745 234.949 C 300.731 234.856,300.897 234.847,301.113 234.930 C 301.381 235.033,301.451 234.990,301.331 234.796 C 301.228 234.630,301.274 234.539,301.441 234.577 C 301.598 234.613,301.780 234.494,301.846 234.312 C 301.916 234.120,301.861 234.047,301.714 234.137 C 301.575 234.223,301.393 234.182,301.308 234.046 C 301.224 233.909,301.243 233.813,301.351 233.832 C 302.054 233.954,302.422 233.733,301.786 233.571 C 301.167 233.414,301.147 233.386,301.635 233.362 C 302.103 233.338,302.179 233.232,302.085 232.738 C 302.022 232.411,302.071 232.143,302.193 232.143 C 302.600 232.143,302.270 230.838,301.786 230.531 C 301.310 230.229,301.310 230.229,301.786 230.293 C 302.366 230.371,302.530 229.505,302.177 228.227 C 302.048 227.762,302.032 227.381,302.140 227.381 C 302.412 227.381,302.411 201.475,302.139 201.307 C 302.011 201.228,302.016 200.929,302.152 200.571 C 302.521 199.600,302.429 198.304,301.964 197.939 C 301.669 197.707,301.647 197.630,301.891 197.675 C 302.079 197.710,302.278 197.535,302.331 197.287 C 302.403 196.955,302.330 196.873,302.056 196.979 C 301.850 197.058,301.626 197.031,301.557 196.919 C 301.488 196.808,301.604 196.650,301.814 196.570 C 302.071 196.471,302.160 196.230,302.086 195.839 C 302.024 195.517,302.092 195.206,302.237 195.146 C 302.382 195.086,302.324 195.029,302.110 195.019 C 301.895 195.008,301.734 194.866,301.753 194.702 C 301.771 194.539,301.679 194.405,301.548 194.405 C 301.417 194.405,301.342 194.503,301.382 194.624 C 301.423 194.744,301.289 194.704,301.085 194.535 C 300.673 194.193,300.581 193.937,300.952 194.167 C 301.083 194.248,301.190 194.140,301.190 193.929 C 301.190 193.717,301.083 193.610,300.952 193.690 C 300.821 193.771,300.714 193.671,300.714 193.466 C 300.714 192.806,300.239 193.074,300.210 193.750 C 300.189 194.249,300.155 194.291,300.066 193.929 C 299.901 193.257,299.530 192.857,299.078 192.861 C 298.770 192.864,298.757 192.906,299.014 193.069 C 299.222 193.201,299.249 193.328,299.089 193.427 C 298.954 193.510,298.775 193.470,298.693 193.337 C 298.611 193.204,298.335 193.095,298.081 193.095 C 297.778 193.095,297.619 192.932,297.619 192.619 C 297.619 192.357,297.510 192.143,297.378 192.143 C 297.241 192.143,297.190 191.839,297.259 191.444 C 297.372 190.802,297.319 190.737,296.608 190.648 C 295.878 190.558,295.889 190.549,296.786 190.499 C 297.740 190.446,297.396 190.097,296.190 189.895 C 295.994 189.862,295.887 189.739,295.952 189.620 C 296.018 189.502,296.152 189.432,296.250 189.464 C 296.348 189.497,296.429 189.357,296.429 189.153 C 296.429 188.948,296.321 188.848,296.190 188.929 C 296.060 189.010,295.952 188.909,295.952 188.705 C 295.952 188.500,295.845 188.333,295.714 188.333 C 295.476 188.333,295.414 188.649,295.435 189.762 C 295.441 190.115,295.398 190.196,295.328 189.961 C 295.193 189.504,294.594 189.214,294.239 189.434 C 294.083 189.530,294.099 189.647,294.286 189.762 C 294.492 189.890,294.499 189.987,294.311 190.103 C 294.166 190.193,294.034 190.153,294.018 190.014 C 293.960 189.527,293.919 189.402,293.710 189.070 C 293.552 188.821,293.582 188.788,293.828 188.940 C 294.010 189.052,294.353 189.158,294.591 189.176 C 295.205 189.221,295.029 188.242,294.405 188.144 C 294.049 188.089,294.010 188.125,294.252 188.291 C 294.460 188.434,294.487 188.566,294.328 188.665 C 294.192 188.749,294.010 188.704,293.925 188.565 C 293.724 188.241,291.668 188.341,291.663 188.675 C 291.661 188.849,291.605 188.847,291.484 188.670 C 291.257 188.334,289.695 188.334,289.468 188.670 C 289.351 188.843,289.292 188.826,289.289 188.617 C 289.287 188.445,289.186 188.367,289.064 188.442 C 288.942 188.518,288.775 188.470,288.693 188.337 C 288.469 187.974,287.702 188.046,287.279 188.469 C 286.939 188.809,286.905 188.809,286.905 188.470 C 286.905 188.132,274.173 188.097,150.008 188.097 C 19.841 188.097,13.117 188.117,13.245 188.513 C 13.336 188.798,13.311 188.836,13.165 188.635 C 12.883 188.244,11.288 187.913,11.523 188.293 C 11.634 188.474,11.558 188.515,11.298 188.415 C 11.075 188.329,10.813 188.408,10.694 188.596 C 10.543 188.834,10.482 188.844,10.480 188.631 C 10.475 188.245,9.233 188.243,8.847 188.629 C 8.612 188.864,8.510 188.857,8.347 188.594 C 8.080 188.162,7.286 188.458,7.465 188.923 C 7.538 189.114,7.480 189.343,7.336 189.433 C 7.161 189.541,7.114 189.386,7.194 188.964 C 7.266 188.587,7.208 188.335,7.050 188.337 C 6.468 188.344,5.714 188.641,5.714 188.863 C 5.714 188.992,5.867 189.040,6.054 188.968 C 6.333 188.861,6.350 188.963,6.150 189.538 C 6.006 189.952,5.799 190.171,5.643 190.075 C 5.457 189.960,5.464 189.885,5.666 189.818 C 6.047 189.691,6.036 189.280,5.655 189.373 C 5.491 189.413,5.431 189.403,5.522 189.350 C 5.613 189.298,5.624 189.090,5.547 188.889 C 5.470 188.688,5.556 188.429,5.739 188.313 C 6.008 188.143,5.994 188.102,5.669 188.099 C 5.447 188.097,5.198 188.205,5.115 188.339 M4.524 188.585 C 4.524 188.724,4.406 188.765,4.262 188.676 C 4.089 188.569,4.097 188.694,4.286 189.048 C 4.443 189.341,4.466 189.516,4.336 189.436 C 4.039 189.252,3.515 189.860,3.752 190.114 C 3.849 190.218,3.675 190.170,3.364 190.008 C 3.054 189.847,2.867 189.823,2.949 189.956 C 3.031 190.089,2.964 190.252,2.799 190.318 C 2.635 190.384,3.009 190.447,3.631 190.457 L 4.762 190.476 4.762 189.405 C 4.762 188.815,4.708 188.333,4.643 188.333 C 4.577 188.333,4.524 188.447,4.524 188.585 M216.369 188.512 C 179.866 188.545,120.134 188.545,83.631 188.512 C 47.128 188.479,76.994 188.452,150.000 188.452 C 223.006 188.452,252.872 188.479,216.369 188.512 M293.353 189.286 C 293.475 189.286,293.441 189.503,293.276 189.769 C 293.028 190.169,293.038 190.292,293.333 190.480 C 293.530 190.605,293.583 190.707,293.452 190.707 C 292.810 190.707,292.521 190.286,292.872 189.860 C 293.124 189.556,293.139 189.421,292.930 189.351 C 292.769 189.296,292.714 189.082,292.804 188.854 C 292.950 188.483,292.969 188.484,293.046 188.869 C 293.092 189.098,293.230 189.286,293.353 189.286 M6.390 190.991 C 6.140 191.241,6.009 191.566,6.100 191.712 C 6.198 191.871,6.157 191.912,5.998 191.814 C 5.851 191.723,5.527 191.854,5.277 192.104 C 4.828 192.552,4.822 192.550,4.826 191.935 C 4.829 191.591,4.880 191.451,4.941 191.625 C 5.022 191.856,5.204 191.796,5.623 191.402 C 6.000 191.048,6.105 190.808,5.930 190.700 C 5.783 190.610,5.929 190.536,6.254 190.536 C 6.836 190.536,6.838 190.543,6.390 190.991 M294.521 191.362 C 294.784 191.588,295.000 191.863,295.000 191.975 C 295.000 192.086,294.832 192.009,294.626 191.803 C 294.420 191.597,294.152 191.429,294.031 191.429 C 293.909 191.429,293.810 191.321,293.810 191.190 C 293.810 190.853,293.973 190.893,294.521 191.362 M296.880 191.627 C 296.761 191.671,296.718 191.796,296.785 191.904 C 296.936 192.147,296.274 192.068,296.019 191.812 C 295.917 191.710,295.994 191.663,296.190 191.706 C 296.426 191.759,296.522 191.636,296.472 191.345 C 296.408 190.969,296.448 190.951,296.746 191.226 C 296.939 191.403,296.999 191.584,296.880 191.627 M297.143 192.738 C 297.143 192.977,296.926 193.084,296.488 193.063 C 295.927 193.035,295.910 193.016,296.369 192.927 C 296.664 192.870,296.905 192.724,296.905 192.602 C 296.905 192.481,296.958 192.381,297.024 192.381 C 297.089 192.381,297.143 192.542,297.143 192.738 M295.005 192.855 C 295.257 192.719,295.503 192.709,295.578 192.829 C 295.723 193.063,294.793 193.304,294.335 193.151 C 294.175 193.098,294.119 192.935,294.209 192.789 C 294.327 192.598,294.399 192.603,294.468 192.807 C 294.534 193.008,294.692 193.022,295.005 192.855 M301.918 209.643 L 301.674 210.595 301.787 209.643 C 301.849 209.119,301.919 208.262,301.944 207.738 L 301.988 206.786 302.075 207.738 C 302.123 208.262,302.052 209.119,301.918 209.643 M302.115 220.694 C 302.157 222.276,301.987 221.773,301.840 219.881 C 301.761 218.870,301.784 218.495,301.898 218.929 C 302.002 219.321,302.099 220.116,302.115 220.694 M301.867 224.940 C 301.846 225.039,301.910 225.303,302.008 225.528 C 302.107 225.753,302.133 226.074,302.065 226.242 C 301.998 226.410,301.934 226.313,301.924 226.026 C 301.913 225.739,301.796 225.437,301.663 225.355 C 301.530 225.272,301.482 225.105,301.558 224.984 C 301.722 224.718,301.920 224.690,301.867 224.940 " stroke="none" fill="#dccc54" fill-rule="evenodd"></path><path id="path1" d="M2.423 1.119 L 2.381 2.356 1.131 2.444 L -0.119 2.531 1.138 2.575 C 2.578 2.625,2.696 2.487,2.557 0.920 C 2.464 -0.118,2.464 -0.117,2.423 1.119 M2.857 1.429 L 2.857 2.857 1.429 2.857 C -0.362 2.857,-0.456 3.261,1.308 3.371 C 2.329 3.434,2.694 3.361,2.972 3.036 C 3.168 2.807,3.544 2.606,3.807 2.589 C 4.070 2.573,4.420 2.546,4.583 2.530 C 5.149 2.473,5.115 0.000,4.549 0.000 C 4.144 0.000,4.059 0.188,3.985 1.250 L 3.898 2.500 3.854 1.250 C 3.782 -0.769,2.857 -0.603,2.857 1.429 M5.238 1.052 C 5.238 1.631,5.202 2.247,5.158 2.421 C 5.114 2.595,5.123 2.657,5.178 2.558 C 5.234 2.459,5.377 2.439,5.497 2.513 C 5.618 2.588,5.714 2.063,5.714 1.324 C 5.714 0.596,5.607 0.000,5.476 0.000 C 5.345 0.000,5.238 0.473,5.238 1.052 M6.026 1.310 C 6.027 2.095,6.072 2.388,6.125 1.960 C 6.178 1.532,6.177 0.889,6.123 0.531 C 6.068 0.174,6.025 0.524,6.026 1.310 M6.663 1.239 C 6.599 1.986,6.634 2.510,6.741 2.403 C 6.847 2.296,6.899 1.685,6.856 1.045 L 6.778 -0.119 6.663 1.239 M393.123 1.250 C 393.108 2.003,393.178 2.619,393.280 2.619 C 393.382 2.619,393.430 2.164,393.387 1.607 C 393.257 -0.061,393.152 -0.203,393.123 1.250 M393.906 1.189 L 393.929 2.496 395.000 2.556 C 395.589 2.589,396.313 2.655,396.607 2.703 C 397.112 2.786,397.143 2.710,397.143 1.396 C 397.143 0.004,397.141 0.000,396.429 0.000 C 395.730 0.000,395.714 0.026,395.714 1.190 C 395.714 2.779,395.249 2.725,395.199 1.131 L 395.160 -0.119 395.007 1.190 L 394.854 2.500 394.733 1.190 L 394.612 -0.119 394.568 1.131 C 394.511 2.749,394.100 2.749,393.978 1.131 L 393.883 -0.119 393.906 1.189 M397.477 1.190 L 397.500 2.500 398.810 2.523 L 400.119 2.545 398.881 2.451 L 397.643 2.357 397.549 1.119 L 397.455 -0.119 397.477 1.190 M397.619 3.095 C 397.619 3.226,398.155 3.333,398.810 3.333 C 399.464 3.333,400.000 3.226,400.000 3.095 C 400.000 2.964,399.464 2.857,398.810 2.857 C 398.155 2.857,397.619 2.964,397.619 3.095 M1.131 45.176 C 2.232 45.253,2.381 45.325,2.385 45.786 C 2.389 46.463,2.744 47.042,2.950 46.709 C 3.034 46.573,2.994 46.394,2.861 46.312 C 2.728 46.230,2.619 45.901,2.619 45.581 C 2.619 45.027,2.555 45.002,1.250 45.044 L -0.119 45.088 1.131 45.176 M397.534 45.183 C 397.472 45.284,397.867 45.331,398.413 45.289 C 400.015 45.166,400.210 45.057,398.883 45.028 C 398.203 45.012,397.596 45.082,397.534 45.183 M397.009 46.566 C 397.535 46.951,397.471 47.360,396.845 47.612 C 396.330 47.819,396.335 47.828,396.964 47.842 C 397.555 47.856,397.619 47.776,397.619 47.039 C 397.619 46.359,397.536 46.226,397.128 46.257 C 396.700 46.289,396.684 46.329,397.009 46.566 M2.619 47.652 C 2.619 47.765,2.887 47.857,3.214 47.857 C 3.542 47.857,3.810 47.816,3.810 47.766 C 3.810 47.716,3.542 47.623,3.214 47.561 C 2.887 47.498,2.619 47.539,2.619 47.652 M2.619 48.492 C 2.619 48.971,3.508 49.762,4.048 49.762 C 4.310 49.762,4.524 49.655,4.524 49.524 C 4.524 49.393,4.443 49.298,4.345 49.314 C 3.868 49.389,3.559 49.261,3.693 49.044 C 3.775 48.911,3.969 48.872,4.124 48.958 C 4.278 49.044,4.221 48.919,3.995 48.680 C 3.509 48.164,2.619 48.042,2.619 48.492 M396.652 48.414 C 396.945 48.707,396.385 49.300,396.063 49.037 C 395.908 48.911,395.816 49.009,395.816 49.299 C 395.816 49.888,396.465 49.903,396.987 49.326 C 397.521 48.736,397.484 48.197,396.908 48.197 C 396.624 48.197,396.522 48.284,396.652 48.414 M10.449 48.710 C 10.434 48.830,10.439 49.107,10.460 49.326 C 10.482 49.544,10.307 49.773,10.071 49.834 C 9.777 49.910,9.837 49.953,10.261 49.972 C 10.773 49.995,10.874 49.900,10.848 49.416 C 10.817 48.841,10.502 48.285,10.449 48.710 M395.238 49.174 C 395.238 49.718,394.546 49.883,394.207 49.420 C 393.938 49.052,393.910 49.060,393.876 49.509 C 393.845 49.917,393.978 50.000,394.658 50.000 C 395.372 50.000,395.476 49.924,395.476 49.405 C 395.476 49.077,395.423 48.810,395.357 48.810 C 395.292 48.810,395.238 48.974,395.238 49.174 M387.143 49.290 C 386.825 49.491,386.825 49.517,387.143 49.524 C 387.460 49.530,387.460 49.557,387.143 49.762 C 386.825 49.967,386.825 49.991,387.143 49.980 C 387.719 49.959,388.545 49.561,388.056 49.541 C 387.837 49.531,387.623 49.420,387.579 49.293 C 387.529 49.147,387.370 49.145,387.143 49.290 M389.305 49.583 C 389.291 49.885,389.467 49.999,389.940 49.996 C 390.431 49.994,390.509 49.938,390.249 49.774 C 390.059 49.654,389.827 49.602,389.734 49.660 C 389.641 49.718,389.510 49.630,389.444 49.466 C 389.371 49.285,389.316 49.332,389.305 49.583 M4.763 49.821 C 4.762 49.920,5.137 50.000,5.595 50.000 C 6.054 50.000,6.429 49.912,6.429 49.804 C 6.429 49.696,6.054 49.615,5.596 49.625 C 5.138 49.635,4.763 49.723,4.763 49.821 M17.560 49.692 C 17.854 49.749,18.336 49.749,18.631 49.692 C 18.926 49.635,18.685 49.589,18.095 49.589 C 17.506 49.589,17.265 49.635,17.560 49.692 M381.610 49.692 C 381.906 49.749,382.335 49.747,382.562 49.687 C 382.790 49.628,382.548 49.581,382.024 49.584 C 381.500 49.586,381.314 49.635,381.610 49.692 M5.739 93.075 C 5.556 93.191,5.470 93.450,5.547 93.651 C 5.624 93.852,5.613 94.060,5.522 94.112 C 5.431 94.165,5.491 94.175,5.655 94.135 C 6.036 94.042,6.047 94.453,5.666 94.579 C 5.464 94.647,5.457 94.722,5.643 94.837 C 5.799 94.933,6.006 94.714,6.150 94.300 C 6.350 93.725,6.333 93.623,6.054 93.730 C 5.867 93.802,5.714 93.754,5.714 93.625 C 5.714 93.402,6.468 93.106,7.050 93.098 C 7.208 93.097,7.266 93.349,7.194 93.726 C 7.114 94.148,7.161 94.303,7.336 94.194 C 7.480 94.105,7.538 93.876,7.465 93.685 C 7.286 93.220,8.080 92.924,8.347 93.356 C 8.510 93.619,8.612 93.626,8.847 93.391 C 9.233 93.005,10.475 93.007,10.480 93.393 C 10.482 93.606,10.543 93.596,10.694 93.358 C 10.813 93.170,11.075 93.091,11.298 93.177 C 11.529 93.265,11.631 93.231,11.546 93.093 C 11.365 92.800,6.198 92.784,5.739 93.075 M188.693 93.099 C 188.775 93.232,188.942 93.279,189.064 93.204 C 189.186 93.129,189.287 93.207,189.289 93.379 C 189.292 93.630,189.332 93.629,189.495 93.372 C 189.725 93.008,191.209 93.065,191.484 93.447 C 191.602 93.610,191.661 93.607,191.663 93.437 C 191.668 93.103,193.724 93.003,193.925 93.327 C 194.010 93.466,194.192 93.510,194.328 93.427 C 194.904 93.071,193.776 92.864,191.236 92.861 C 189.472 92.858,188.595 92.941,188.693 93.099 M3.095 93.571 C 2.414 94.252,2.466 94.959,3.194 94.915 C 3.511 94.896,3.726 94.837,3.673 94.784 C 3.528 94.639,4.077 94.037,4.253 94.146 C 4.337 94.198,4.420 93.982,4.439 93.668 C 4.483 92.943,3.775 92.892,3.095 93.571 M4.799 94.094 L 4.762 95.212 3.631 95.288 L 2.500 95.363 3.773 95.479 C 5.250 95.614,5.174 95.696,4.984 94.167 L 4.837 92.976 4.799 94.094 M58.631 93.274 C 81.384 93.307,118.616 93.307,141.369 93.274 C 164.122 93.240,145.506 93.213,100.000 93.213 C 54.494 93.213,35.878 93.240,58.631 93.274 M195.000 93.570 C 195.000 94.062,194.497 94.121,193.832 93.706 C 193.582 93.550,193.550 93.582,193.707 93.832 C 193.821 94.016,193.937 94.310,193.964 94.486 C 194.033 94.948,194.214 95.070,194.395 94.778 C 194.481 94.638,194.432 94.524,194.286 94.524 C 194.139 94.524,194.080 94.427,194.153 94.308 C 194.357 93.978,195.200 94.284,195.310 94.727 C 195.363 94.943,195.410 94.664,195.413 94.107 C 195.417 93.551,195.326 93.095,195.210 93.095 C 195.095 93.095,195.000 93.309,195.000 93.570 M195.780 93.567 C 195.761 93.826,195.847 94.101,195.971 94.178 C 196.096 94.256,196.148 94.401,196.086 94.501 C 196.024 94.601,196.103 94.688,196.260 94.694 C 196.418 94.700,196.735 94.783,196.964 94.878 C 197.562 95.126,197.520 94.186,196.905 93.571 C 196.298 92.965,195.826 92.963,195.780 93.567 M192.804 93.616 C 192.714 93.843,192.769 94.058,192.930 94.113 C 193.139 94.183,193.124 94.318,192.872 94.622 C 192.521 95.048,192.810 95.469,193.452 95.469 C 193.583 95.469,193.530 95.367,193.333 95.242 C 193.038 95.054,193.028 94.931,193.276 94.531 C 193.441 94.265,193.475 94.048,193.353 94.048 C 193.230 94.048,193.092 93.860,193.046 93.631 C 192.969 93.246,192.950 93.245,192.804 93.616 M196.660 94.171 C 196.767 94.105,196.918 94.216,196.996 94.418 C 197.091 94.666,197.041 94.731,196.843 94.618 C 196.171 94.234,195.967 93.979,196.128 93.723 C 196.239 93.546,196.327 93.598,196.381 93.872 C 196.427 94.103,196.552 94.237,196.660 94.171 M5.930 95.462 C 6.105 95.570,6.000 95.810,5.623 96.164 C 5.204 96.558,5.022 96.618,4.941 96.386 C 4.880 96.213,4.829 96.353,4.826 96.696 C 4.822 97.312,4.828 97.314,5.277 96.866 C 5.527 96.616,5.851 96.485,5.998 96.576 C 6.157 96.674,6.198 96.633,6.100 96.474 C 6.009 96.328,6.140 96.003,6.390 95.753 C 6.838 95.305,6.836 95.298,6.254 95.298 C 5.929 95.298,5.783 95.372,5.930 95.462 M196.488 95.412 C 196.979 95.463,197.381 95.594,197.381 95.703 C 197.381 95.963,196.725 96.212,196.602 95.999 C 196.550 95.908,196.538 95.964,196.576 96.123 C 196.692 96.606,196.237 96.706,195.974 96.255 C 195.839 96.023,195.726 95.961,195.722 96.117 C 195.714 96.419,196.122 96.744,196.600 96.816 C 196.759 96.841,196.867 96.750,196.838 96.615 C 196.809 96.480,196.920 96.320,197.083 96.260 C 197.274 96.190,197.329 96.286,197.237 96.528 C 197.157 96.735,197.211 96.905,197.355 96.905 C 197.500 96.905,197.619 96.530,197.619 96.071 C 197.619 95.243,197.612 95.238,196.607 95.278 L 195.595 95.318 196.488 95.412 M3.571 95.945 C 3.571 96.072,3.400 96.110,3.190 96.029 C 2.747 95.859,2.390 96.322,2.385 97.071 C 2.381 97.531,2.230 97.606,1.131 97.689 L -0.119 97.784 1.183 97.761 C 2.440 97.739,2.492 97.712,2.705 96.964 C 2.827 96.539,3.029 96.190,3.155 96.190 C 3.281 96.190,3.326 96.343,3.254 96.530 C 3.147 96.809,3.249 96.826,3.823 96.626 C 4.237 96.482,4.457 96.275,4.361 96.119 C 4.246 95.933,4.171 95.940,4.103 96.143 C 4.051 96.300,3.913 96.429,3.797 96.429 C 3.681 96.429,3.648 96.268,3.723 96.071 C 3.799 95.875,3.795 95.714,3.716 95.714 C 3.636 95.714,3.571 95.818,3.571 95.945 M193.817 95.893 C 193.826 96.098,195.000 96.995,195.000 96.797 C 195.000 96.634,194.090 95.714,193.929 95.714 C 193.863 95.714,193.813 95.795,193.817 95.893 M194.956 97.646 C 194.813 97.734,195.247 97.845,195.920 97.891 C 196.593 97.938,197.143 97.907,197.143 97.823 C 197.143 97.604,195.269 97.453,194.956 97.646 M2.857 97.857 C 2.857 97.989,2.222 98.095,1.429 98.095 C -0.374 98.095,-0.451 98.500,1.331 98.609 C 2.241 98.665,2.717 98.593,2.834 98.384 C 2.928 98.216,3.320 97.984,3.705 97.869 L 4.405 97.660 3.631 97.640 C 3.205 97.628,2.857 97.726,2.857 97.857 M197.976 97.791 C 198.238 97.856,198.577 98.009,198.729 98.132 C 198.902 98.272,199.057 98.272,199.144 98.132 C 199.312 97.861,198.726 97.609,198.016 97.647 C 197.534 97.672,197.531 97.682,197.976 97.791 M199.942 98.452 C 200.004 98.780,200.097 99.048,200.147 99.048 C 200.197 99.048,200.238 98.780,200.238 98.452 C 200.238 98.125,200.146 97.857,200.033 97.857 C 199.920 97.857,199.879 98.125,199.942 98.452 M200.591 98.341 C 200.611 98.607,200.822 99.008,201.061 99.234 C 201.300 99.459,201.425 99.516,201.339 99.362 C 201.253 99.207,201.292 99.013,201.425 98.931 C 201.642 98.797,201.770 99.106,201.695 99.583 C 201.679 99.682,201.774 99.762,201.905 99.762 C 202.318 99.762,202.163 98.829,201.667 98.333 C 201.054 97.720,200.546 97.724,200.591 98.341 M202.006 100.834 C 201.996 101.292,202.076 101.667,202.185 101.667 C 202.293 101.667,202.381 101.292,202.381 100.833 C 202.381 99.746,202.029 99.747,202.006 100.834 M202.143 105.372 C 202.143 105.608,201.973 105.717,201.677 105.670 C 201.422 105.629,201.206 105.698,201.199 105.824 C 201.191 105.950,201.454 106.067,201.783 106.085 C 202.261 106.111,202.381 106.005,202.381 105.558 C 202.381 105.251,202.327 105.000,202.262 105.000 C 202.196 105.000,202.143 105.167,202.143 105.372 M201.835 112.564 C 201.994 114.203,202.103 114.341,202.124 112.931 C 202.134 112.251,202.049 111.637,201.934 111.566 C 201.820 111.495,201.775 111.944,201.835 112.564 M201.900 125.405 C 201.837 126.086,201.873 126.556,201.980 126.449 C 202.086 126.343,202.138 125.785,202.094 125.211 L 202.015 124.167 201.900 125.405 M201.607 130.000 C 201.771 130.183,201.914 130.553,201.925 130.821 C 201.940 131.177,202.003 131.119,202.155 130.607 C 202.271 130.221,202.315 129.855,202.254 129.794 C 202.193 129.733,202.143 129.821,202.143 129.989 C 202.143 130.237,202.062 130.235,201.726 129.981 C 201.372 129.713,201.354 129.716,201.607 130.000 M201.818 132.325 C 201.966 132.421,202.141 132.714,202.207 132.976 C 202.298 133.341,202.332 133.299,202.353 132.798 C 202.373 132.321,202.268 132.144,201.964 132.147 C 201.700 132.149,201.646 132.214,201.818 132.325 M202.081 137.480 C 202.168 137.938,202.076 138.078,201.631 138.162 C 201.122 138.259,201.130 138.271,201.726 138.301 C 202.302 138.329,202.381 138.247,202.381 137.619 C 202.381 137.226,202.289 136.905,202.176 136.905 C 202.063 136.905,202.020 137.164,202.081 137.480 M201.342 138.863 C 201.408 138.969,201.560 138.995,201.680 138.920 C 201.801 138.846,201.836 138.950,201.758 139.153 C 201.680 139.355,201.504 139.452,201.367 139.367 C 201.229 139.282,201.186 139.325,201.271 139.462 C 201.356 139.600,201.260 139.776,201.058 139.853 C 200.855 139.931,200.750 139.896,200.825 139.776 C 200.899 139.655,200.873 139.503,200.768 139.438 C 200.662 139.372,200.559 139.526,200.540 139.778 C 200.496 140.373,201.219 140.388,201.749 139.803 C 202.289 139.206,202.254 138.593,201.683 138.636 C 201.430 138.655,201.277 138.757,201.342 138.863 M200.000 139.790 C 200.000 140.199,199.888 140.272,199.405 140.180 C 199.077 140.117,198.810 140.158,198.810 140.271 C 198.810 140.384,199.131 140.476,199.524 140.476 C 200.127 140.476,200.238 140.384,200.238 139.881 C 200.238 139.554,200.185 139.286,200.119 139.286 C 200.054 139.286,200.000 139.512,200.000 139.790 M1.131 140.414 C 2.232 140.491,2.381 140.564,2.385 141.024 C 2.389 141.701,2.744 142.280,2.950 141.947 C 3.034 141.811,2.994 141.632,2.861 141.550 C 2.728 141.468,2.619 141.139,2.619 140.819 C 2.619 140.265,2.555 140.240,1.250 140.282 L -0.119 140.326 1.131 140.414 M197.009 141.804 C 197.535 142.189,197.471 142.598,196.845 142.850 C 196.330 143.057,196.335 143.066,196.964 143.080 C 197.555 143.094,197.619 143.015,197.619 142.277 C 197.619 141.597,197.536 141.464,197.128 141.495 C 196.700 141.527,196.684 141.567,197.009 141.804 M2.619 142.890 C 2.619 143.003,2.887 143.095,3.214 143.095 C 3.542 143.095,3.810 143.054,3.810 143.004 C 3.810 142.954,3.542 142.861,3.214 142.799 C 2.887 142.736,2.619 142.777,2.619 142.890 M2.619 143.730 C 2.619 144.210,3.508 145.000,4.048 145.000 C 4.310 145.000,4.524 144.893,4.524 144.762 C 4.524 144.631,4.443 144.536,4.345 144.552 C 3.868 144.627,3.559 144.499,3.693 144.282 C 3.775 144.149,3.969 144.110,4.124 144.196 C 4.278 144.282,4.221 144.157,3.995 143.918 C 3.509 143.402,2.619 143.280,2.619 143.730 M196.652 143.652 C 196.945 143.945,196.385 144.538,196.063 144.275 C 195.908 144.149,195.816 144.247,195.816 144.537 C 195.816 145.126,196.465 145.141,196.987 144.565 C 197.521 143.974,197.484 143.435,196.908 143.435 C 196.624 143.435,196.522 143.522,196.652 143.652 M10.449 143.948 C 10.434 144.068,10.439 144.345,10.460 144.564 C 10.482 144.782,10.307 145.011,10.071 145.072 C 9.777 145.148,9.837 145.192,10.261 145.210 C 10.773 145.233,10.874 145.138,10.848 144.654 C 10.817 144.080,10.502 143.523,10.449 143.948 M195.238 144.412 C 195.238 144.956,194.546 145.121,194.207 144.658 C 193.938 144.290,193.910 144.298,193.876 144.747 C 193.845 145.155,193.978 145.238,194.658 145.238 C 195.372 145.238,195.476 145.162,195.476 144.643 C 195.476 144.315,195.423 144.048,195.357 144.048 C 195.292 144.048,195.238 144.212,195.238 144.412 M187.143 144.736 C 187.438 144.948,187.442 144.993,187.163 144.996 C 186.977 144.998,186.875 145.050,186.937 145.111 C 186.998 145.172,187.364 145.128,187.750 145.013 C 188.136 144.897,188.274 144.794,188.055 144.782 C 187.837 144.771,187.462 144.698,187.222 144.620 C 186.859 144.503,186.846 144.522,187.143 144.736 M189.289 144.821 C 189.287 145.125,189.464 145.231,189.940 145.210 C 190.442 145.189,190.484 145.155,190.119 145.064 C 189.857 144.998,189.564 144.823,189.468 144.675 C 189.357 144.503,189.292 144.557,189.289 144.821 M4.763 145.060 C 4.762 145.158,5.137 145.238,5.595 145.238 C 6.054 145.238,6.429 145.150,6.429 145.042 C 6.429 144.934,6.054 144.853,5.596 144.863 C 5.138 144.873,4.763 144.961,4.763 145.060 M17.560 144.930 C 17.854 144.987,18.336 144.987,18.631 144.930 C 18.926 144.873,18.685 144.827,18.095 144.827 C 17.506 144.827,17.265 144.873,17.560 144.930 M181.610 144.930 C 181.906 144.987,182.335 144.985,182.562 144.925 C 182.790 144.866,182.548 144.819,182.024 144.822 C 181.500 144.825,181.314 144.873,181.610 144.930 M5.739 188.313 C 5.556 188.429,5.470 188.688,5.547 188.889 C 5.624 189.090,5.613 189.298,5.522 189.350 C 5.431 189.403,5.491 189.413,5.655 189.373 C 6.036 189.280,6.047 189.691,5.666 189.818 C 5.464 189.885,5.457 189.960,5.643 190.075 C 5.799 190.171,6.006 189.952,6.150 189.538 C 6.350 188.963,6.333 188.861,6.054 188.968 C 5.867 189.040,5.714 188.992,5.714 188.863 C 5.714 188.641,6.468 188.344,7.050 188.337 C 7.208 188.335,7.266 188.587,7.194 188.964 C 7.114 189.386,7.161 189.541,7.336 189.433 C 7.480 189.343,7.538 189.114,7.465 188.923 C 7.286 188.458,8.080 188.162,8.347 188.594 C 8.510 188.857,8.612 188.864,8.847 188.629 C 9.233 188.243,10.475 188.245,10.480 188.631 C 10.482 188.844,10.543 188.834,10.694 188.596 C 10.813 188.408,11.075 188.329,11.298 188.415 C 11.529 188.504,11.631 188.469,11.546 188.331 C 11.365 188.038,6.198 188.022,5.739 188.313 M288.693 188.337 C 288.775 188.470,288.942 188.518,289.064 188.442 C 289.186 188.367,289.287 188.445,289.289 188.617 C 289.292 188.826,289.351 188.843,289.468 188.670 C 289.564 188.527,290.018 188.411,290.476 188.411 C 290.935 188.411,291.388 188.527,291.484 188.670 C 291.605 188.847,291.661 188.849,291.663 188.675 C 291.668 188.341,293.724 188.241,293.925 188.565 C 294.010 188.704,294.192 188.749,294.328 188.665 C 294.904 188.309,293.776 188.102,291.236 188.099 C 289.472 188.096,288.595 188.179,288.693 188.337 M3.095 188.810 C 2.414 189.490,2.466 190.197,3.194 190.153 C 3.511 190.134,3.726 190.075,3.673 190.022 C 3.528 189.877,4.077 189.276,4.253 189.385 C 4.337 189.436,4.420 189.221,4.439 188.906 C 4.483 188.181,3.775 188.130,3.095 188.810 M4.799 189.332 L 4.762 190.450 3.631 190.526 L 2.500 190.601 3.773 190.717 C 5.250 190.852,5.174 190.934,4.984 189.405 L 4.837 188.214 4.799 189.332 M83.631 188.512 C 120.134 188.545,179.866 188.545,216.369 188.512 C 252.872 188.479,223.006 188.452,150.000 188.452 C 76.994 188.452,47.128 188.479,83.631 188.512 M295.000 188.770 C 295.000 189.233,294.432 189.309,293.805 188.931 C 293.520 188.759,293.506 188.784,293.730 189.061 C 294.005 189.402,294.048 189.530,294.048 190.014 C 294.048 190.153,294.166 190.193,294.311 190.103 C 294.499 189.987,294.492 189.890,294.286 189.762 C 294.099 189.647,294.083 189.530,294.239 189.434 C 294.597 189.212,295.197 189.507,295.309 189.961 C 295.363 190.179,295.410 189.902,295.413 189.345 C 295.417 188.789,295.326 188.333,295.210 188.333 C 295.095 188.333,295.000 188.530,295.000 188.770 M295.952 188.705 C 295.952 188.909,296.060 189.010,296.190 188.929 C 296.321 188.848,296.429 188.948,296.429 189.153 C 296.429 189.357,296.348 189.497,296.250 189.464 C 296.152 189.432,296.042 189.505,296.005 189.628 C 295.969 189.751,296.076 189.874,296.243 189.903 C 296.411 189.931,296.735 190.029,296.964 190.122 C 297.562 190.362,297.519 189.424,296.905 188.810 C 296.334 188.239,295.952 188.197,295.952 188.705 M292.804 188.854 C 292.714 189.082,292.769 189.296,292.930 189.351 C 293.139 189.421,293.124 189.556,292.872 189.860 C 292.521 190.286,292.810 190.707,293.452 190.707 C 293.583 190.707,293.530 190.605,293.333 190.480 C 293.038 190.292,293.028 190.169,293.276 189.769 C 293.441 189.503,293.475 189.286,293.353 189.286 C 293.230 189.286,293.092 189.098,293.046 188.869 C 292.969 188.484,292.950 188.483,292.804 188.854 M5.930 190.700 C 6.105 190.808,6.000 191.048,5.623 191.402 C 5.204 191.796,5.022 191.856,4.941 191.625 C 4.880 191.451,4.829 191.591,4.826 191.935 C 4.822 192.550,4.828 192.552,5.277 192.104 C 5.527 191.854,5.851 191.723,5.998 191.814 C 6.157 191.912,6.198 191.871,6.100 191.712 C 6.009 191.566,6.140 191.241,6.390 190.991 C 6.838 190.543,6.836 190.536,6.254 190.536 C 5.929 190.536,5.783 190.610,5.930 190.700 M296.607 190.648 C 297.390 190.746,297.601 191.026,297.116 191.326 C 296.971 191.416,296.752 191.342,296.630 191.161 C 296.462 190.913,296.426 190.949,296.478 191.310 C 296.525 191.630,296.431 191.760,296.190 191.706 C 295.994 191.663,295.917 191.710,296.019 191.812 C 296.272 192.065,296.936 192.149,296.788 191.909 C 296.723 191.803,296.824 191.657,297.013 191.585 C 297.242 191.497,297.313 191.568,297.224 191.798 C 297.151 191.988,297.211 192.143,297.355 192.143 C 297.500 192.143,297.619 191.768,297.619 191.310 C 297.619 190.499,297.595 190.477,296.726 190.514 C 295.847 190.552,295.845 190.554,296.607 190.648 M3.571 191.183 C 3.571 191.310,3.400 191.348,3.190 191.267 C 2.747 191.097,2.390 191.560,2.385 192.309 C 2.381 192.769,2.230 192.844,1.131 192.927 L -0.119 193.022 1.183 192.999 C 2.440 192.977,2.492 192.950,2.705 192.202 C 2.827 191.777,3.029 191.429,3.155 191.429 C 3.281 191.429,3.326 191.581,3.254 191.768 C 3.147 192.047,3.249 192.065,3.823 191.864 C 4.237 191.720,4.457 191.513,4.361 191.358 C 4.246 191.171,4.171 191.178,4.103 191.381 C 4.051 191.538,3.913 191.667,3.797 191.667 C 3.681 191.667,3.648 191.506,3.723 191.310 C 3.799 191.113,3.795 190.952,3.716 190.952 C 3.636 190.952,3.571 191.056,3.571 191.183 M293.810 191.190 C 293.810 191.321,293.909 191.429,294.031 191.429 C 294.152 191.429,294.420 191.597,294.626 191.803 C 294.832 192.009,295.000 192.086,295.000 191.975 C 295.000 191.770,294.141 190.952,293.926 190.952 C 293.862 190.952,293.810 191.060,293.810 191.190 M296.905 192.602 C 296.905 192.724,296.664 192.870,296.369 192.927 C 295.910 193.016,295.927 193.035,296.488 193.063 C 296.926 193.084,297.143 192.977,297.143 192.738 C 297.143 192.542,297.089 192.381,297.024 192.381 C 296.958 192.381,296.905 192.481,296.905 192.602 M294.209 192.789 C 294.119 192.935,294.175 193.098,294.335 193.151 C 294.793 193.304,295.723 193.063,295.578 192.829 C 295.503 192.709,295.257 192.719,295.005 192.855 C 294.692 193.022,294.534 193.008,294.468 192.807 C 294.399 192.603,294.327 192.598,294.209 192.789 M2.857 193.095 C 2.857 193.228,2.222 193.333,1.429 193.333 C -0.374 193.333,-0.451 193.738,1.331 193.847 C 2.241 193.903,2.717 193.832,2.834 193.622 C 2.928 193.454,3.320 193.222,3.705 193.107 L 4.405 192.898 3.631 192.878 C 3.205 192.866,2.857 192.964,2.857 193.095 M297.976 193.029 C 298.238 193.094,298.577 193.247,298.729 193.371 C 298.902 193.511,299.057 193.510,299.144 193.370 C 299.312 193.099,298.726 192.847,298.016 192.885 C 297.534 192.911,297.531 192.920,297.976 193.029 M299.942 193.690 C 300.004 194.018,300.097 194.286,300.147 194.286 C 300.197 194.286,300.238 194.018,300.238 193.690 C 300.238 193.363,300.146 193.095,300.033 193.095 C 299.920 193.095,299.879 193.363,299.942 193.690 M300.714 193.466 C 300.714 193.671,300.821 193.771,300.952 193.690 C 301.083 193.610,301.190 193.717,301.190 193.929 C 301.190 194.140,301.083 194.248,300.952 194.167 C 300.581 193.937,300.673 194.193,301.085 194.535 C 301.289 194.704,301.423 194.744,301.382 194.624 C 301.342 194.503,301.417 194.405,301.548 194.405 C 301.679 194.405,301.771 194.539,301.753 194.702 C 301.734 194.866,301.815 195.000,301.931 195.000 C 302.323 195.000,302.147 194.052,301.667 193.571 C 301.096 193.001,300.714 192.959,300.714 193.466 M302.084 195.830 C 302.160 196.230,302.073 196.470,301.814 196.570 C 301.604 196.650,301.488 196.808,301.557 196.919 C 301.626 197.031,301.839 197.062,302.031 196.988 C 302.405 196.845,302.538 195.238,302.176 195.238 C 302.063 195.238,302.022 195.505,302.084 195.830 M302.074 200.714 C 302.005 200.976,302.047 201.250,302.165 201.323 C 302.284 201.397,302.381 201.182,302.381 200.847 C 302.381 200.118,302.245 200.059,302.074 200.714 M301.944 207.738 C 301.919 208.262,301.849 209.119,301.787 209.643 L 301.674 210.595 301.918 209.643 C 302.052 209.119,302.123 208.262,302.075 207.738 L 301.988 206.786 301.944 207.738 M301.840 219.881 C 301.912 220.798,302.009 221.592,302.056 221.647 C 302.215 221.829,302.089 219.652,301.898 218.929 C 301.784 218.495,301.761 218.870,301.840 219.881 M301.558 224.984 C 301.482 225.105,301.530 225.272,301.663 225.355 C 301.796 225.437,301.914 225.739,301.925 226.026 C 301.942 226.447,301.986 226.412,302.155 225.845 C 302.271 225.459,302.315 225.093,302.254 225.032 C 302.193 224.971,302.143 225.052,302.143 225.212 C 302.143 225.373,302.034 225.437,301.901 225.355 C 301.768 225.272,301.721 225.105,301.796 224.984 C 301.871 224.862,301.879 224.762,301.814 224.762 C 301.748 224.762,301.633 224.862,301.558 224.984 M302.085 227.976 C 302.147 228.304,302.239 228.571,302.290 228.571 C 302.340 228.571,302.381 228.304,302.381 227.976 C 302.381 227.649,302.289 227.381,302.176 227.381 C 302.063 227.381,302.022 227.649,302.085 227.976 M302.081 232.718 C 302.168 233.176,302.076 233.316,301.631 233.400 C 301.122 233.497,301.130 233.509,301.726 233.539 C 302.302 233.568,302.381 233.485,302.381 232.857 C 302.381 232.464,302.289 232.143,302.176 232.143 C 302.063 232.143,302.020 232.402,302.081 232.718 M301.342 234.101 C 301.408 234.207,301.575 234.223,301.714 234.137 C 301.861 234.047,301.916 234.120,301.846 234.312 C 301.780 234.494,301.598 234.613,301.441 234.577 C 301.274 234.539,301.228 234.630,301.331 234.796 C 301.447 234.984,301.385 235.034,301.150 234.944 C 300.938 234.863,300.794 234.943,300.794 235.142 C 300.794 235.610,301.280 235.558,301.749 235.041 C 302.289 234.444,302.254 233.831,301.683 233.874 C 301.430 233.893,301.277 233.995,301.342 234.101 M300.000 235.028 C 300.000 235.437,299.888 235.510,299.405 235.418 C 299.077 235.355,298.810 235.396,298.810 235.509 C 298.810 235.622,299.131 235.714,299.524 235.714 C 300.127 235.714,300.238 235.622,300.238 235.119 C 300.238 234.792,300.185 234.524,300.119 234.524 C 300.054 234.524,300.000 234.751,300.000 235.028 M1.119 235.651 L 2.357 235.738 2.444 236.976 L 2.531 238.214 2.575 236.845 L 2.619 235.476 1.250 235.520 L -0.119 235.564 1.119 235.651 M297.478 235.806 C 297.408 235.988,297.387 236.604,297.431 237.175 C 297.508 238.181,297.514 238.170,297.624 236.845 C 297.740 235.455,297.705 235.212,297.478 235.806 M2.857 236.905 C 2.857 237.560,2.964 238.095,3.095 238.095 C 3.226 238.095,3.333 237.560,3.333 236.905 C 3.333 236.250,3.226 235.714,3.095 235.714 C 2.964 235.714,2.857 236.250,2.857 236.905 " stroke="none" fill="#e0cc54" fill-rule="evenodd"></path></g></svg>