<svg id="Layer_1" data-name="Layer 1" xmlns="http://www.w3.org/2000/svg" viewBox="0 0 389.25 72.69"><defs><style>.cls-1{fill:#62bb46;}.cls-2{fill:#fff;}</style></defs><title>logo</title><path class="cls-1" d="M76.14 71.86l11.28-54.05h41.14l-2.54 12.2H99.11l-1.6 7.61h26.01l-2.54 12.2H94.93l-2.27 9.83h29.19l-2.59 12.21H76.14zm88.41 0l-.95-31.02-15.46 31.02h-13.67l-2.03-54.05h13.97l.37 29.06 14.25-29.06h14.23l.97 28.81 13.71-28.81h14.24l-26.14 54.05h-13.49zm60.31-.01l-2.68-11.1h-17.11l-5.06 11.11h-15l25.84-54.05h14.21l13.51 54.05h-13.71zm-5.54-23.28l-3-12.75-6.53 12.75h9.49zM0 0l10.95 17.14 53.57 11.52c-1.84 9.33-6.55 19.64-18.8 25.21l2.6-12.21 2.21-9.94-37.82-8.68 7.75 12.13 13.77 3.23-1.13 5.34-9.79-2.25 7.7 12-4.06 19.17 10.09-1.27C78.12 66.22 81.9 17.82 81.9 17.82z"/><path class="cls-2" d="M290.75 23.32a7.58 7.58 0 0 0-2.58-2.9 14.16 14.16 0 0 0-4.36-1.94 21.72 21.72 0 0 0-5.72-.71h-11.1l-1.6 7.44h7.31a5.88 5.88 0 0 1 3.44.89 2.12 2.12 0 0 1 1 2.23L275.46 36a3.28 3.28 0 0 1-1.9 2 7.49 7.49 0 0 1-3.6.89h-7.48l-1.59 7.45h8.86a5 5 0 0 1 3.21 1 1.9 1.9 0 0 1 .81 2.16l-2.37 12a3.28 3.28 0 0 1-1.94 2.08 7.88 7.88 0 0 1-3.71.89H254.5l8.62-40.41.06-.4a11.42 11.42 0 0 0 .29-1.35l1-4.56h-13.76s-2.12-.38-5.13 4.44a70 70 0 0 0-4.54 8.42l6.28 2.69-5.8 27.36v.15l-.65 3v.08l-1 4.63s-.41 3.33 3.38 3.33h24.64a24.72 24.72 0 0 0 6-.71 22 22 0 0 0 5.13-1.94 14.38 14.38 0 0 0 3.82-2.9 7.89 7.89 0 0 0 2-3.54l2.34-11.03a8.16 8.16 0 0 0 .14-2.9 6.65 6.65 0 0 0-1-2.64 6.91 6.91 0 0 0-2.26-2.16 12.38 12.38 0 0 0-3.84-1.45 14.08 14.08 0 0 0 6.64-3.69 11.59 11.59 0 0 0 2.88-5.32l1.38-6.63a5.37 5.37 0 0 0-.37-3.62zm28.96 1.9h4.3c3.46 0 11 .31 12.53-7.44h-37.3l-9.06 42.88-.21 1-.46 2.19v.09l-1 4.62s-.41 3.33 3.38 3.33h34.77l1.29-7.45h-24.84l3.93-18.09h19.88l1.59-7.45h-20l2.94-13.7h8.22zm29.36-7.44c-3.46 0-11-.31-12.53 7.44h18.45l-10 46.68h13.77l10-46.68h8c3.46 0 11 .31 12.53-7.44h-40.22z"/></svg>